<?xml version="1.0" encoding="UTF-8" standalone="no"?>
<!-- Created with Inkscape (http://www.inkscape.org/) -->

<svg
   xmlns:dc="http://purl.org/dc/elements/1.1/"
   xmlns:cc="http://creativecommons.org/ns#"
   xmlns:rdf="http://www.w3.org/1999/02/22-rdf-syntax-ns#"
   xmlns:svg="http://www.w3.org/2000/svg"
   xmlns="http://www.w3.org/2000/svg"
   xmlns:sodipodi="http://sodipodi.sourceforge.net/DTD/sodipodi-0.dtd"
   xmlns:inkscape="http://www.inkscape.org/namespaces/inkscape"
   width="744.09448819"
   height="1052.3622047"
   id="svg2"
   version="1.1"
   inkscape:version="0.48.3.1 r9886"
   sodipodi:docname="bearing_path.dxf">
  <defs
     id="defs4" />
  <sodipodi:namedview
     id="base"
     pagecolor="#ffffff"
     bordercolor="#666666"
     borderopacity="1.0"
     inkscape:pageopacity="0.0"
     inkscape:pageshadow="2"
     inkscape:zoom="0.7"
     inkscape:cx="375"
     inkscape:cy="462.85714"
     inkscape:document-units="px"
     inkscape:current-layer="layer1"
     showgrid="false"
     inkscape:window-width="1280"
     inkscape:window-height="775"
     inkscape:window-x="0"
     inkscape:window-y="0"
     inkscape:window-maximized="1" />
  <metadata
     id="metadata7">
    <rdf:RDF>
      <cc:Work
         rdf:about="">
        <dc:format>image/svg+xml</dc:format>
        <dc:type
           rdf:resource="http://purl.org/dc/dcmitype/StillImage" />
        <dc:title></dc:title>
      </cc:Work>
    </rdf:RDF>
  </metadata>
  <g
     inkscape:label="Layer 1"
     inkscape:groupmode="layer"
     id="layer1">
    <path
       style="fill:#1a1a1a;fill-opacity:1"
       d="M 150.71875 250.9375 L 140.5 252.09375 L 130.96875 255.375 L 122.375 260.5625 L 114.84375 267.46875 L 108.65625 275.8125 L 104 285.40625 L 101.03125 296 L 100 307.375 L 101.03125 318.75 L 104 329.3125 L 108.65625 338.90625 L 114.84375 347.25 L 122.375 354.15625 L 130.96875 359.34375 L 140.5 362.65625 L 150.71875 363.78125 L 160.9375 362.65625 L 170.46875 359.34375 L 179.0625 354.15625 L 186.5625 347.25 L 192.78125 338.90625 L 197.4375 329.3125 L 200.40625 318.75 L 201.4375 307.375 L 200.40625 296 L 197.4375 285.40625 L 192.78125 275.8125 L 186.5625 267.46875 L 179.0625 260.5625 L 170.46875 255.375 L 160.9375 252.09375 L 150.71875 250.9375 z "
       id="path3007" />
  </g>
</svg>
