<?xml version="1.0" encoding="UTF-8" standalone="no"?>
<!-- Created with Inkscape (http://www.inkscape.org/) -->

<svg
   xmlns:dc="http://purl.org/dc/elements/1.1/"
   xmlns:cc="http://creativecommons.org/ns#"
   xmlns:rdf="http://www.w3.org/1999/02/22-rdf-syntax-ns#"
   xmlns:svg="http://www.w3.org/2000/svg"
   xmlns="http://www.w3.org/2000/svg"
   xmlns:sodipodi="http://sodipodi.sourceforge.net/DTD/sodipodi-0.dtd"
   xmlns:inkscape="http://www.inkscape.org/namespaces/inkscape"
   width="744.09448819"
   height="1052.3622047"
   id="svg2"
   version="1.1"
   inkscape:version="0.48.3.1 r9886"
   sodipodi:docname="Wing.dxf">
  <defs
     id="defs4" />
  <sodipodi:namedview
     id="base"
     pagecolor="#ffffff"
     bordercolor="#666666"
     borderopacity="1.0"
     inkscape:pageopacity="0.0"
     inkscape:pageshadow="2"
     inkscape:zoom="0.49497475"
     inkscape:cx="139.21612"
     inkscape:cy="800.69123"
     inkscape:document-units="px"
     inkscape:current-layer="layer1"
     showgrid="false"
     inkscape:window-width="1280"
     inkscape:window-height="775"
     inkscape:window-x="0"
     inkscape:window-y="0"
     inkscape:window-maximized="1" />
  <metadata
     id="metadata7">
    <rdf:RDF>
      <cc:Work
         rdf:about="">
        <dc:format>image/svg+xml</dc:format>
        <dc:type
           rdf:resource="http://purl.org/dc/dcmitype/StillImage" />
        <dc:title></dc:title>
      </cc:Work>
    </rdf:RDF>
  </metadata>
  <g
     inkscape:label="Layer 1"
     inkscape:groupmode="layer"
     id="layer1">
    <path
       id="path2994"
       style="fill:none;stroke:#000000;stroke-width:1px;stroke-linecap:butt;stroke-linejoin:miter;stroke-opacity:1"
       d="m 1.3270455,49.85048 c 3.764881,0 7.588274,0.0273 11.4674365,0.0807 3.879163,0.0534 7.814095,0.13285 11.802053,0.23707 3.987958,0.10423 8.028943,0.23323 12.120212,0.38572 4.091269,0.1525 8.232821,0.32848 12.421915,0.52668 4.189094,0.1982 8.425729,0.41861 12.707162,0.65995 4.281433,0.24134 8.607665,0.50362 12.975952,0.78554 4.368287,0.28192 8.77863,0.58349 13.228285,0.90343 4.449654,0.31993 8.938624,0.65824 13.464159,1.01363 4.52554,0.35539 9.08765,0.72787 13.68358,1.11615 4.59594,0.38829 9.2257,0.79237 13.88655,1.21098 4.66085,0.41861 9.35278,0.85175 14.07305,1.29812 4.72028,0.44638 9.46889,0.90599 14.24311,1.37757 4.77421,0.47158 9.57403,0.95512 14.3967,1.44933 4.82267,0.49422 9.66819,0.99911 14.53383,1.51341 4.86564,0.51429 9.7514,1.03798 14.65452,1.56978 4.90312,0.53181 9.82362,1.07173 14.75874,1.61849 4.93513,0.54675 9.88488,1.10034 14.84651,1.65949 4.96164,0.55914 9.93516,1.12384 14.91783,1.69281 4.98266,0.56896 9.97447,1.1422 14.97267,1.71843 4.99821,0.57623 10.00282,1.15545 15.01108,1.73638 5.00826,0.58093 10.02018,1.16357 15.03302,1.74663 5.01283,0.58307 10.02658,1.16656 15.0385,1.74919 5.01192,0.58264 10.02202,1.16442 15.02754,1.74407 5.00552,0.57965 10.00647,1.15716 15.0001,1.73125 4.99364,0.5741 9.97996,1.14477 14.95622,1.71075 4.97627,0.56598 9.94247,1.12726 14.89588,1.68256 4.95341,0.5553 9.89402,1.10462 14.81909,1.64667 4.92506,0.54206 9.83459,1.07686 14.72583,1.60311 4.89124,0.52625 9.76419,1.04396 14.61612,1.55185 4.85192,0.50788 9.68282,1.00594 14.48995,1.4929 4.80713,0.48695 9.59048,0.9628 14.34733,1.42626 4.75684,0.46346 9.48717,0.91454 14.18825,1.35194 4.70107,0.43741 9.37289,0.86114 14.01271,1.26993 4.63982,0.40878 9.24764,0.80262 13.82072,1.18022 4.57308,0.37761 9.11142,0.73898 13.61227,1.08284 4.50086,0.34386 8.96423,0.6702 13.38737,0.97775 4.42314,0.30755 8.80606,0.59631 13.146,0.86499 4.33995,0.26868 8.63692,0.51728 12.88818,0.74452 4.25127,0.22725 8.45682,0.43314 12.61391,0.61639 4.1571,0.18325 8.26574,0.34385 12.32318,0.48054 4.05744,0.13669 8.06368,0.24946 12.01599,0.33703 3.9523,0.0876 7.85066,0.14993 11.69234,0.18581 3.84168,0.0359 7.62667,0.0453 11.35224,0.0269 3.72557,-0.0184 7.39171,-0.0645 10.99568,-0.13968 3.60397,-0.0752 7.14578,-0.1794 10.62267,-0.31396 3.47689,-0.13455 6.88887,-0.29943 10.2332,-0.49592 3.34432,-0.19649 6.62099,-0.42459 9.82726,-0.68558 3.20628,-0.26099 6.34215,-0.55487 9.40489,-0.88293 3.06273,-0.32805 6.05233,-0.69028 8.96604,-1.08796 2.91371,-0.39768 5.75154,-0.83081 8.51075,-1.30068 2.7592,-0.46987 5.43978,-0.97647 8.03899,-1.52109 2.59921,-0.54462 5.11705,-1.12726 7.55078,-1.74919 2.43373,-0.62194 4.78335,-1.28317 7.04612,-1.98499 2.26276,-0.70181 4.43867,-1.4442 6.52499,-2.22845 2.08631,-0.78426 4.08303,-1.61037 5.98741,-2.47963 1.90438,-0.86926 3.71642,-1.78165 5.43337,-2.73848 1.71696,-0.95682 3.33884,-1.95807 4.86289,-3.00502 1.52405,-1.04695 2.95027,-2.13961 4.27593,-3.27926 1.32565,-1.13964 2.55074,-2.32627 3.67252,-3.56117 1.12178,-1.2349 2.14025,-2.51807 3.05267,-3.85079 0.91241,-1.33272 1.71877,-2.71499 2.41634,-4.14809 0.69757,-1.43309 1.28634,-2.91702 1.76357,-4.45307 0.47723,-1.53604 0.84292,-3.1242 1.09433,-4.76575 0.25141,-1.64155 0.38854,-3.33649 0.40865,-5.08611 M 1.3270455,50.33167 c 3.764881,0 7.588274,-0.0273 11.4674365,-0.0807 3.879163,-0.0534 7.814095,-0.13285 11.802053,-0.23707 3.987958,-0.10423 8.028943,-0.23323 12.120212,-0.38572 4.091269,-0.1525 8.232821,-0.32848 12.421915,-0.52668 4.189094,-0.1982 8.425729,-0.41861 12.707162,-0.65995 4.281433,-0.24134 8.607665,-0.50362 12.975952,-0.78554 4.368287,-0.28192 8.77863,-0.58349 13.228285,-0.90343 4.449654,-0.31993 8.938624,-0.65824 13.464159,-1.01363 4.52554,-0.35539 9.08765,-0.72787 13.68358,-1.11615 4.59594,-0.38829 9.2257,-0.79237 13.88655,-1.21098 4.66085,-0.41861 9.35278,-0.85175 14.07305,-1.29812 4.72028,-0.44638 9.46889,-0.90599 14.24311,-1.37757 4.77421,-0.47158 9.57403,-0.95512 14.3967,-1.44933 4.82267,-0.49422 9.66819,-0.99911 14.53383,-1.51341 4.86564,-0.51429 9.7514,-1.03798 14.65452,-1.56978 4.90312,-0.53181 9.82362,-1.07173 14.75874,-1.61849 4.93513,-0.54675 9.88488,-1.10034 14.84651,-1.65949 4.96164,-0.55914 9.93516,-1.12384 14.91783,-1.69281 4.98266,-0.56896 9.97447,-1.1422 14.97267,-1.71843 4.99821,-0.57623 10.00282,-1.15545 15.01108,-1.73638 5.00826,-0.58093 10.02018,-1.16357 15.03302,-1.74663 5.01283,-0.58307 10.02658,-1.16656 15.0385,-1.74919 5.01192,-0.58264 10.02202,-1.16442 15.02754,-1.74407 5.00552,-0.57965 10.00647,-1.15716 15.0001,-1.73125 4.99364,-0.5741 9.97996,-1.14477 14.95622,-1.71075 4.97627,-0.56598 9.94247,-1.12726 14.89588,-1.68256 4.95341,-0.5553 9.89402,-1.10462 14.81909,-1.64667 4.92506,-0.54206 9.83459,-1.07686 14.72583,-1.60311 4.89124,-0.52625 9.76419,-1.04396 14.61612,-1.55185 4.85192,-0.50788 9.68282,-1.00594 14.48995,-1.4929 4.80713,-0.48695 9.59048,-0.9628 14.34733,-1.4262596 4.75684,-0.46346 9.48717,-0.91454 14.18825,-1.35194 4.70107,-0.43741 9.37289,-0.86114 14.01271,-1.26993 4.63982,-0.40878 9.24764,-0.80262 13.82072,-1.18022 4.57308,-0.37761 9.11142,-0.73898 13.61227,-1.08284 4.50086,-0.34386 8.96423,-0.6702 13.38737,-0.97775 4.42314,-0.30755 8.80606,-0.59631 13.146,-0.86499 4.33995,-0.26868 8.63692,-0.51728 12.88818,-0.74452 4.25127,-0.22725 8.45682,-0.43314 12.61391,-0.61639 4.1571,-0.18325 8.26574,-0.34385 12.32318,-0.48054 4.05744,-0.13668995 8.06368,-0.24945995 12.01599,-0.33702995 3.9523,-0.0876 7.85066,-0.14993 11.69234,-0.18581 3.84168,-0.0359 7.62667,-0.0453 11.35224,-0.0269 3.72557,0.0184 7.39171,0.0645 10.99568,0.13968 3.60397,0.0752 7.14578,0.1794 10.62267,0.31395995 3.47689,0.13455 6.88887,0.29943 10.2332,0.49592 3.34432,0.19649 6.62099,0.42459 9.82726,0.68558 3.20628,0.26099 6.34215,0.55487 9.40489,0.88293 3.06273,0.32805 6.05233,0.69028 8.96604,1.08796 2.91371,0.39768 5.75154,0.83081 8.51075,1.30068 2.7592,0.46987 5.43978,0.97647 8.03899,1.52109 2.59921,0.54462 5.11705,1.12726 7.55078,1.74919 2.43373,0.62194 4.78335,1.2831696 7.04612,1.9849896 2.26276,0.70181 4.43867,1.4442 6.52499,2.22845 2.08631,0.78426 4.08303,1.61037 5.98741,2.47963 1.90438,0.86926 3.71642,1.78165 5.43337,2.73848 1.71696,0.95682 3.33884,1.95807 4.86289,3.00502 1.52405,1.04695 2.95027,2.13961 4.27593,3.27926 1.32565,1.13964 2.55074,2.32627 3.67252,3.56117 1.12178,1.2349 2.14025,2.51807 3.05267,3.85079 0.91241,1.33272 1.71877,2.71499 2.41634,4.14809 0.69757,1.43309 1.28634,2.91702 1.76357,4.45307 0.47723,1.53604 0.84292,3.1242 1.09433,4.76575 0.25141,1.64155 0.38854,3.33649 0.40865,5.08611"
       inkscape:connector-curvature="0" />
  </g>
</svg>
